<svg width="17" height="22" viewBox="0 0 17 22" fill="none" xmlns="http://www.w3.org/2000/svg">
<path d="M16.04 18.58C16.04 18.38 15.9434 13.82 13.2947 11.16C12.4054 10.26 11.3227 9.69999 10.066 9.47999C11.69 8.83999 12.8307 7.21999 12.8307 5.33999C12.8307 2.89999 10.9167 0.899994 8.53869 0.899994C6.16069 0.899994 4.24669 2.87999 4.24669 5.33999C4.24669 7.25999 5.42602 8.89999 7.08869 9.49999C1.23069 10.72 0.960022 18.5 0.960022 18.58V18.82L1.15336 18.94C1.28869 19.02 4.67202 21.1 8.53869 21.1C12.4054 21.1 15.692 19.04 15.8467 18.94L16.04 18.82V18.58ZM5.03935 5.33999C5.03935 3.33999 6.60535 1.71999 8.53869 1.71999C10.472 1.71999 12.038 3.33999 12.038 5.33999C12.038 7.33999 10.472 8.95999 8.53869 8.95999C6.62469 8.95999 5.03935 7.33999 5.03935 5.33999ZM8.55802 20.28C5.42602 20.28 2.54536 18.8 1.77202 18.36C1.81069 17.74 2.00402 16.06 2.70002 14.38C3.86002 11.62 5.83202 10.2 8.55802 10.16C10.24 10.12 11.6514 10.66 12.734 11.76C14.822 13.86 15.17 17.42 15.228 18.38C14.4934 18.8 11.6707 20.28 8.55802 20.28Z" fill="#010202"/>
</svg>
